<mxfile host="65bd71144e">
    <diagram id="OvufEbKKA4a_qwjIsNrZ" name="ページ1">
        <mxGraphModel dx="1910" dy="1078" grid="0" gridSize="10" guides="0" tooltips="1" connect="0" arrows="1" fold="1" page="0" pageScale="1" pageWidth="827" pageHeight="1169" background="#ffffff" math="0" shadow="0">
            <root>
                <mxCell id="0"/>
                <mxCell id="1" parent="0"/>
                <mxCell id="70" value="" style="group" vertex="1" connectable="0" parent="1">
                    <mxGeometry x="-81" y="183.84" width="1046" height="370.15999999999997" as="geometry"/>
                </mxCell>
                <mxCell id="4" value="" style="rounded=1;whiteSpace=wrap;html=1;strokeColor=#8F8F8F;fillColor=none;strokeWidth=2;" vertex="1" parent="70">
                    <mxGeometry x="21" y="40.16" width="480" height="330" as="geometry"/>
                </mxCell>
                <mxCell id="10" value="" style="sketch=0;aspect=fixed;html=1;points=[];align=center;image;fontSize=12;image=img/lib/mscae/Kubernetes.svg;strokeColor=#555555;strokeWidth=5;fillColor=none;" vertex="1" parent="70">
                    <mxGeometry width="71" height="68.16" as="geometry"/>
                </mxCell>
                <mxCell id="11" value="" style="rounded=1;whiteSpace=wrap;html=1;strokeColor=#8F8F8F;strokeWidth=2;fillColor=none;" vertex="1" parent="70">
                    <mxGeometry x="43" y="114.16" width="123" height="135" as="geometry"/>
                </mxCell>
                <mxCell id="8" value="&lt;font color=&quot;#555555&quot;&gt;Control Plane&lt;/font&gt;" style="sketch=0;html=1;dashed=0;whitespace=wrap;fillColor=#2875E2;strokeColor=#ffffff;points=[[0.005,0.63,0],[0.1,0.2,0],[0.9,0.2,0],[0.5,0,0],[0.995,0.63,0],[0.72,0.99,0],[0.5,1,0],[0.28,0.99,0]];verticalLabelPosition=bottom;align=center;verticalAlign=top;shape=mxgraph.kubernetes.icon;prIcon=master;strokeWidth=5;" vertex="1" parent="70">
                    <mxGeometry x="34" y="83.16" width="50" height="48" as="geometry"/>
                </mxCell>
                <mxCell id="12" value="" style="rounded=1;whiteSpace=wrap;html=1;strokeColor=#8F8F8F;strokeWidth=2;fillColor=none;" vertex="1" parent="70">
                    <mxGeometry x="202" y="114.16" width="282" height="239" as="geometry"/>
                </mxCell>
                <mxCell id="9" value="" style="sketch=0;html=1;dashed=0;whitespace=wrap;fillColor=#2875E2;strokeColor=#ffffff;points=[[0.005,0.63,0],[0.1,0.2,0],[0.9,0.2,0],[0.5,0,0],[0.995,0.63,0],[0.72,0.99,0],[0.5,1,0],[0.28,0.99,0]];verticalLabelPosition=bottom;align=center;verticalAlign=top;shape=mxgraph.kubernetes.icon;prIcon=node;strokeWidth=5;" vertex="1" parent="70">
                    <mxGeometry x="200" y="78.16" width="50" height="48" as="geometry"/>
                </mxCell>
                <mxCell id="13" value="&lt;font color=&quot;#555555&quot;&gt;Review Token&lt;/font&gt;" style="sketch=0;html=1;dashed=0;whitespace=wrap;fillColor=#2875E2;strokeColor=#ffffff;points=[[0.005,0.63,0],[0.1,0.2,0],[0.9,0.2,0],[0.5,0,0],[0.995,0.63,0],[0.72,0.99,0],[0.5,1,0],[0.28,0.99,0]];verticalLabelPosition=bottom;align=center;verticalAlign=top;shape=mxgraph.kubernetes.icon;prIcon=api;strokeWidth=5;" vertex="1" parent="70">
                    <mxGeometry x="80" y="155.16" width="62" height="52" as="geometry"/>
                </mxCell>
                <mxCell id="16" value="" style="rounded=1;whiteSpace=wrap;html=1;strokeColor=#8F8F8F;strokeWidth=2;fontColor=#555555;fillColor=none;" vertex="1" parent="70">
                    <mxGeometry x="216" y="168.16" width="126" height="163" as="geometry"/>
                </mxCell>
                <mxCell id="14" value="" style="sketch=0;html=1;dashed=0;whitespace=wrap;fillColor=#2875E2;strokeColor=#ffffff;points=[[0.005,0.63,0],[0.1,0.2,0],[0.9,0.2,0],[0.5,0,0],[0.995,0.63,0],[0.72,0.99,0],[0.5,1,0],[0.28,0.99,0]];verticalLabelPosition=bottom;align=center;verticalAlign=top;shape=mxgraph.kubernetes.icon;prIcon=ns;strokeWidth=2;fontColor=#555555;" vertex="1" parent="70">
                    <mxGeometry x="220" y="143.16" width="37" height="40" as="geometry"/>
                </mxCell>
                <mxCell id="18" value="" style="rounded=1;whiteSpace=wrap;html=1;strokeColor=#8F8F8F;strokeWidth=2;fontColor=#555555;fillColor=none;" vertex="1" parent="70">
                    <mxGeometry x="364" y="166.16" width="108" height="166" as="geometry"/>
                </mxCell>
                <mxCell id="17" value="" style="sketch=0;html=1;dashed=0;whitespace=wrap;fillColor=#2875E2;strokeColor=#ffffff;points=[[0.005,0.63,0],[0.1,0.2,0],[0.9,0.2,0],[0.5,0,0],[0.995,0.63,0],[0.72,0.99,0],[0.5,1,0],[0.28,0.99,0]];verticalLabelPosition=bottom;align=center;verticalAlign=top;shape=mxgraph.kubernetes.icon;prIcon=ns;strokeWidth=2;fontColor=#555555;" vertex="1" parent="70">
                    <mxGeometry x="353" y="142.16" width="37" height="40" as="geometry"/>
                </mxCell>
                <mxCell id="19" value="&lt;font size=&quot;1&quot;&gt;Pod&lt;/font&gt;" style="sketch=0;html=1;dashed=0;whitespace=wrap;fillColor=#2875E2;strokeColor=#ffffff;points=[[0.005,0.63,0],[0.1,0.2,0],[0.9,0.2,0],[0.5,0,0],[0.995,0.63,0],[0.72,0.99,0],[0.5,1,0],[0.28,0.99,0]];verticalLabelPosition=bottom;align=center;verticalAlign=top;shape=mxgraph.kubernetes.icon;prIcon=pod;strokeWidth=2;fontColor=#555555;" vertex="1" parent="70">
                    <mxGeometry x="226" y="178.16" width="33" height="41" as="geometry"/>
                </mxCell>
                <mxCell id="21" style="edgeStyle=none;html=1;entryX=0.937;entryY=0.524;entryDx=0;entryDy=0;entryPerimeter=0;fontColor=#555555;strokeColor=#8F8F8F;" edge="1" parent="70" source="20" target="19">
                    <mxGeometry relative="1" as="geometry"/>
                </mxCell>
                <mxCell id="20" value="&lt;font style=&quot;font-size: 8px;&quot;&gt;SA&lt;/font&gt;" style="sketch=0;html=1;dashed=0;whitespace=wrap;fillColor=#2875E2;strokeColor=#ffffff;points=[[0.005,0.63,0],[0.1,0.2,0],[0.9,0.2,0],[0.5,0,0],[0.995,0.63,0],[0.72,0.99,0],[0.5,1,0],[0.28,0.99,0]];verticalLabelPosition=bottom;align=center;verticalAlign=top;shape=mxgraph.kubernetes.icon;prIcon=sa;strokeWidth=2;fontColor=#555555;" vertex="1" parent="70">
                    <mxGeometry x="293" y="181.16" width="31" height="39" as="geometry"/>
                </mxCell>
                <mxCell id="23" value="&lt;font style=&quot;font-size: 7px;&quot;&gt;VaultStaticSecret&lt;/font&gt;" style="sketch=0;html=1;dashed=0;whitespace=wrap;fillColor=#2875E2;strokeColor=#ffffff;points=[[0.005,0.63,0],[0.1,0.2,0],[0.9,0.2,0],[0.5,0,0],[0.995,0.63,0],[0.72,0.99,0],[0.5,1,0],[0.28,0.99,0]];verticalLabelPosition=bottom;align=center;verticalAlign=top;shape=mxgraph.kubernetes.icon;prIcon=crd;strokeWidth=2;fontSize=8;fontColor=#555555;" vertex="1" parent="70">
                    <mxGeometry x="236" y="277.15999999999997" width="24" height="27" as="geometry"/>
                </mxCell>
                <mxCell id="24" value="Vault Auth" style="sketch=0;html=1;dashed=0;whitespace=wrap;fillColor=#2875E2;strokeColor=#ffffff;points=[[0.005,0.63,0],[0.1,0.2,0],[0.9,0.2,0],[0.5,0,0],[0.995,0.63,0],[0.72,0.99,0],[0.5,1,0],[0.28,0.99,0]];verticalLabelPosition=bottom;align=center;verticalAlign=top;shape=mxgraph.kubernetes.icon;prIcon=crd;strokeWidth=2;fontSize=8;fontColor=#555555;" vertex="1" parent="70">
                    <mxGeometry x="298" y="276.15999999999997" width="26" height="30" as="geometry"/>
                </mxCell>
                <mxCell id="25" style="edgeStyle=none;html=1;strokeColor=#8F8F8F;fontSize=4;fontColor=#555555;" edge="1" parent="70" source="23" target="24">
                    <mxGeometry relative="1" as="geometry"/>
                </mxCell>
                <mxCell id="26" value="&lt;font style=&quot;font-size: 8px;&quot;&gt;Secret&lt;/font&gt;" style="sketch=0;html=1;dashed=0;whitespace=wrap;fillColor=#2875E2;strokeColor=#ffffff;points=[[0.005,0.63,0],[0.1,0.2,0],[0.9,0.2,0],[0.5,0,0],[0.995,0.63,0],[0.72,0.99,0],[0.5,1,0],[0.28,0.99,0]];verticalLabelPosition=bottom;align=center;verticalAlign=top;shape=mxgraph.kubernetes.icon;prIcon=secret;strokeWidth=2;fontSize=4;fontColor=#555555;" vertex="1" parent="70">
                    <mxGeometry x="262" y="236.16" width="27" height="25" as="geometry"/>
                </mxCell>
                <mxCell id="27" value="" style="edgeStyle=none;html=1;strokeColor=#8F8F8F;fontSize=7;fontColor=#555555;" edge="1" parent="70" source="19" target="26">
                    <mxGeometry relative="1" as="geometry"/>
                </mxCell>
                <mxCell id="28" style="edgeStyle=none;html=1;entryX=0.284;entryY=0.862;entryDx=0;entryDy=0;entryPerimeter=0;strokeColor=#8F8F8F;fontSize=7;fontColor=#555555;" edge="1" parent="70" source="23" target="26">
                    <mxGeometry relative="1" as="geometry"/>
                </mxCell>
                <mxCell id="29" value="VaultConnection" style="sketch=0;html=1;dashed=0;whitespace=wrap;fillColor=#2875E2;strokeColor=#ffffff;points=[[0.005,0.63,0],[0.1,0.2,0],[0.9,0.2,0],[0.5,0,0],[0.995,0.63,0],[0.72,0.99,0],[0.5,1,0],[0.28,0.99,0]];verticalLabelPosition=bottom;align=center;verticalAlign=top;shape=mxgraph.kubernetes.icon;prIcon=crd;strokeWidth=2;fontSize=8;fontColor=#555555;" vertex="1" parent="70">
                    <mxGeometry x="404" y="272.15999999999997" width="26" height="30" as="geometry"/>
                </mxCell>
                <mxCell id="30" style="edgeStyle=none;html=1;entryX=0.098;entryY=0.651;entryDx=0;entryDy=0;entryPerimeter=0;strokeColor=#8F8F8F;fontSize=7;fontColor=#555555;" edge="1" parent="70" source="24" target="29">
                    <mxGeometry relative="1" as="geometry"/>
                </mxCell>
                <mxCell id="31" value="" style="rounded=1;whiteSpace=wrap;html=1;strokeColor=#8F8F8F;fillColor=none;strokeWidth=2;" vertex="1" parent="70">
                    <mxGeometry x="566" y="38.16" width="480" height="330" as="geometry"/>
                </mxCell>
                <mxCell id="33" value="VaultSecretOperator" style="shape=image;imageAspect=0;aspect=fixed;verticalLabelPosition=bottom;verticalAlign=top;strokeColor=#8F8F8F;strokeWidth=2;fontSize=7;fontColor=#555555;fillColor=none;image=data:image/svg+xml,PHN2ZyB4bWxucz0iaHR0cDovL3d3dy53My5vcmcvMjAwMC9zdmciIGZpbGw9Im5vbmUiIHZpZXdCb3g9IjAgMCA2NCA2MyIgaGVpZ2h0PSI2MyIgd2lkdGg9IjY0Ij4KPHBhdGggZmlsbD0iIzMzMzMzMyIgZD0iTTAgMEwzMS44OSA2Mi4wNkw2NCAwSDBaTTI2Ljg5IDI0LjY0SDIxLjg5VjE5LjU2SDI2Ljg5VjI0LjY0Wk0yNi44OSAxNy4wMkgyMS44OVYxMS45NEgyNi44OVYxNy4wMlpNMzQuNTEgMzIuMjZIMjkuNDZWMjcuMkgzNC41NEwzNC41MSAzMi4yNlpNMzQuNTEgMjQuNjRIMjkuNDZWMTkuNTZIMzQuNTRMMzQuNTEgMjQuNjRaTTM0LjUxIDE3LjAySDI5LjQ2VjExLjk0SDM0LjU0TDM0LjUxIDE3LjAyWk00Mi4wOSAyNC42NEgzNy4wNFYxOS41Nkg0Mi4xMkw0Mi4wOSAyNC42NFpNMzcuMDEgMTcuMDJWMTEuOTRINDIuMDlWMTcuMDJIMzcuMDFaIi8+Cjwvc3ZnPg==;" vertex="1" parent="70">
                    <mxGeometry x="433" y="136.16" width="46.73" height="46" as="geometry"/>
                </mxCell>
                <mxCell id="35" value="Vault&#10;" style="shape=image;imageAspect=0;aspect=fixed;verticalLabelPosition=bottom;verticalAlign=top;strokeColor=#8F8F8F;strokeWidth=20;fontSize=11;fontColor=#555555;fillColor=none;image=data:image/svg+xml,PHN2ZyB4bWxucz0iaHR0cDovL3d3dy53My5vcmcvMjAwMC9zdmciIGZpbGw9Im5vbmUiIHZpZXdCb3g9IjAgMCA2NCA2MyIgaGVpZ2h0PSI2MyIgd2lkdGg9IjY0Ij4KPHBhdGggZmlsbD0iIzMzMzMzMyIgZD0iTTAgMEwzMS44OSA2Mi4wNkw2NCAwSDBaTTI2Ljg5IDI0LjY0SDIxLjg5VjE5LjU2SDI2Ljg5VjI0LjY0Wk0yNi44OSAxNy4wMkgyMS44OVYxMS45NEgyNi44OVYxNy4wMlpNMzQuNTEgMzIuMjZIMjkuNDZWMjcuMkgzNC41NEwzNC41MSAzMi4yNlpNMzQuNTEgMjQuNjRIMjkuNDZWMTkuNTZIMzQuNTRMMzQuNTEgMjQuNjRaTTM0LjUxIDE3LjAySDI5LjQ2VjExLjk0SDM0LjU0TDM0LjUxIDE3LjAyWk00Mi4wOSAyNC42NEgzNy4wNFYxOS41Nkg0Mi4xMkw0Mi4wOSAyNC42NFpNMzcuMDEgMTcuMDJWMTEuOTRINDIuMDlWMTcuMDJIMzcuMDFaIi8+Cjwvc3ZnPg==;" vertex="1" parent="70">
                    <mxGeometry x="556" y="16.159999999999997" width="80.25" height="79" as="geometry"/>
                </mxCell>
                <mxCell id="40" value="" style="rounded=1;whiteSpace=wrap;html=1;strokeColor=#8F8F8F;strokeWidth=2;fontColor=#555555;fillColor=none;" vertex="1" parent="70">
                    <mxGeometry x="591" y="146.16" width="244" height="173" as="geometry"/>
                </mxCell>
                <mxCell id="41" value="Kubernetes Auth" style="text;strokeColor=none;align=center;fillColor=none;html=1;verticalAlign=middle;whiteSpace=wrap;rounded=0;strokeWidth=20;fontSize=11;fontColor=#555555;" vertex="1" parent="70">
                    <mxGeometry x="584" y="150.16" width="121.14" height="30" as="geometry"/>
                </mxCell>
                <mxCell id="42" value="" style="shape=note;whiteSpace=wrap;html=1;backgroundOutline=1;darkOpacity=0.05;strokeColor=#8F8F8F;strokeWidth=1;fontSize=11;fontColor=#555555;fillColor=none;size=22;" vertex="1" parent="70">
                    <mxGeometry x="600" y="202.16" width="89" height="94" as="geometry"/>
                </mxCell>
                <mxCell id="43" value="config" style="text;strokeColor=none;align=center;fillColor=none;html=1;verticalAlign=middle;whiteSpace=wrap;rounded=0;strokeWidth=1;fontSize=11;fontColor=#555555;" vertex="1" parent="70">
                    <mxGeometry x="588" y="196.15809523809517" width="60" height="30" as="geometry"/>
                </mxCell>
                <mxCell id="44" value="&lt;font style=&quot;font-size: 8px;&quot;&gt;クラスタエンドポイント&lt;/font&gt;" style="text;strokeColor=none;align=left;fillColor=none;html=1;verticalAlign=middle;whiteSpace=wrap;rounded=0;strokeWidth=1;fontSize=11;fontColor=#555555;" vertex="1" parent="70">
                    <mxGeometry x="600" y="228.16" width="91" height="30" as="geometry"/>
                </mxCell>
                <mxCell id="45" value="&lt;span style=&quot;font-size: 8px;&quot;&gt;サーバー証明書&lt;/span&gt;" style="text;strokeColor=none;align=left;fillColor=none;html=1;verticalAlign=middle;whiteSpace=wrap;rounded=0;strokeWidth=1;fontSize=11;fontColor=#555555;" vertex="1" parent="70">
                    <mxGeometry x="600" y="252.16" width="91" height="30" as="geometry"/>
                </mxCell>
                <mxCell id="47" value="" style="shape=card;whiteSpace=wrap;html=1;strokeColor=#8F8F8F;strokeWidth=1;fontSize=8;fontColor=#555555;fillColor=none;" vertex="1" parent="70">
                    <mxGeometry x="727" y="193.16" width="92" height="104" as="geometry"/>
                </mxCell>
                <mxCell id="48" value="Role" style="text;strokeColor=none;align=center;fillColor=none;html=1;verticalAlign=middle;whiteSpace=wrap;rounded=0;strokeWidth=1;fontSize=11;fontColor=#555555;" vertex="1" parent="70">
                    <mxGeometry x="744" y="191.15809523809517" width="60" height="30" as="geometry"/>
                </mxCell>
                <mxCell id="49" value="&lt;span style=&quot;font-size: 8px;&quot;&gt;Policy&lt;/span&gt;" style="text;strokeColor=none;align=left;fillColor=none;html=1;verticalAlign=middle;whiteSpace=wrap;rounded=0;strokeWidth=1;fontSize=11;fontColor=#555555;" vertex="1" parent="70">
                    <mxGeometry x="729" y="258.15999999999997" width="91" height="30" as="geometry"/>
                </mxCell>
                <mxCell id="50" value="&lt;span style=&quot;font-size: 8px;&quot;&gt;Namespace&lt;/span&gt;" style="text;strokeColor=none;align=left;fillColor=none;html=1;verticalAlign=middle;whiteSpace=wrap;rounded=0;strokeWidth=1;fontSize=11;fontColor=#555555;" vertex="1" parent="70">
                    <mxGeometry x="728" y="241.16" width="91" height="25" as="geometry"/>
                </mxCell>
                <mxCell id="51" value="&lt;span style=&quot;font-size: 8px;&quot;&gt;Service Account&lt;/span&gt;" style="text;strokeColor=none;align=left;fillColor=none;html=1;verticalAlign=middle;whiteSpace=wrap;rounded=0;strokeWidth=1;fontSize=11;fontColor=#555555;" vertex="1" parent="70">
                    <mxGeometry x="728" y="222.16" width="91" height="25" as="geometry"/>
                </mxCell>
                <mxCell id="52" value="" style="rounded=1;whiteSpace=wrap;html=1;strokeColor=#8F8F8F;strokeWidth=2;fontColor=#555555;fillColor=none;" vertex="1" parent="70">
                    <mxGeometry x="851" y="146.16" width="177" height="173" as="geometry"/>
                </mxCell>
                <mxCell id="53" value="Policy" style="text;strokeColor=none;align=center;fillColor=none;html=1;verticalAlign=middle;whiteSpace=wrap;rounded=0;strokeWidth=20;fontSize=11;fontColor=#555555;" vertex="1" parent="70">
                    <mxGeometry x="836" y="152.16" width="121.14" height="30" as="geometry"/>
                </mxCell>
                <mxCell id="57" style="edgeStyle=none;html=1;entryX=-0.009;entryY=0.45;entryDx=0;entryDy=0;entryPerimeter=0;strokeColor=#8F8F8F;fontSize=8;fontColor=#555555;" edge="1" parent="70" source="54" target="40">
                    <mxGeometry relative="1" as="geometry"/>
                </mxCell>
                <mxCell id="63" style="edgeStyle=none;html=1;strokeColor=#8F8F8F;fontSize=8;fontColor=#555555;exitX=0.828;exitY=0.325;exitDx=0;exitDy=0;exitPerimeter=0;" edge="1" parent="70" source="54">
                    <mxGeometry relative="1" as="geometry">
                        <mxPoint x="94" y="159.16" as="targetPoint"/>
                        <Array as="points">
                            <mxPoint x="431" y="214.16"/>
                            <mxPoint x="431" y="65.16"/>
                            <mxPoint x="96" y="62.16"/>
                        </Array>
                    </mxGeometry>
                </mxCell>
                <mxCell id="54" value="&lt;font size=&quot;1&quot;&gt;SecretsOperator&lt;/font&gt;" style="sketch=0;html=1;dashed=0;whitespace=wrap;fillColor=#2875E2;strokeColor=#ffffff;points=[[0.005,0.63,0],[0.1,0.2,0],[0.9,0.2,0],[0.5,0,0],[0.995,0.63,0],[0.72,0.99,0],[0.5,1,0],[0.28,0.99,0]];verticalLabelPosition=bottom;align=center;verticalAlign=top;shape=mxgraph.kubernetes.icon;prIcon=pod;strokeWidth=2;fontColor=#555555;" vertex="1" parent="70">
                    <mxGeometry x="403" y="202.16" width="33" height="41" as="geometry"/>
                </mxCell>
                <mxCell id="61" style="edgeStyle=none;html=1;entryX=0.53;entryY=0.195;entryDx=0;entryDy=0;entryPerimeter=0;strokeColor=#8F8F8F;fontSize=8;fontColor=#555555;" edge="1" parent="70" source="13" target="54">
                    <mxGeometry relative="1" as="geometry">
                        <Array as="points">
                            <mxPoint x="111" y="71.16"/>
                            <mxPoint x="420" y="73.16"/>
                        </Array>
                    </mxGeometry>
                </mxCell>
                <mxCell id="58" style="edgeStyle=none;html=1;entryX=0.933;entryY=0.698;entryDx=0;entryDy=0;entryPerimeter=0;strokeColor=#8F8F8F;fontSize=8;fontColor=#555555;" edge="1" parent="70" source="40" target="54">
                    <mxGeometry relative="1" as="geometry"/>
                </mxCell>
                <mxCell id="59" value="VaultToken" style="text;strokeColor=none;align=center;fillColor=none;html=1;verticalAlign=middle;whiteSpace=wrap;rounded=0;strokeWidth=1;fontSize=8;fontColor=#555555;" vertex="1" parent="70">
                    <mxGeometry x="501.00478260869573" y="195.15565217391313" width="60" height="30" as="geometry"/>
                </mxCell>
                <mxCell id="64" value="JWTの認証" style="text;strokeColor=none;align=center;fillColor=none;html=1;verticalAlign=middle;whiteSpace=wrap;rounded=0;strokeWidth=1;fontSize=8;fontColor=#555555;" vertex="1" parent="70">
                    <mxGeometry x="248.99631578947375" y="39.163157894736884" width="60" height="30" as="geometry"/>
                </mxCell>
                <mxCell id="65" value="" style="shape=card;whiteSpace=wrap;html=1;strokeColor=#8F8F8F;strokeWidth=1;fontSize=8;fontColor=#555555;fillColor=none;" vertex="1" parent="70">
                    <mxGeometry x="863" y="181.16" width="55" height="76" as="geometry"/>
                </mxCell>
                <mxCell id="66" value="" style="shape=card;whiteSpace=wrap;html=1;strokeColor=#8F8F8F;strokeWidth=1;fontSize=8;fontColor=#555555;fillColor=none;" vertex="1" parent="70">
                    <mxGeometry x="942" y="179.16" width="55" height="76" as="geometry"/>
                </mxCell>
                <mxCell id="67" value="" style="shape=card;whiteSpace=wrap;html=1;strokeColor=#8F8F8F;strokeWidth=1;fontSize=8;fontColor=#555555;fillColor=none;" vertex="1" parent="70">
                    <mxGeometry x="901" y="233.16" width="55" height="76" as="geometry"/>
                </mxCell>
                <mxCell id="68" value="" style="rounded=1;whiteSpace=wrap;html=1;strokeColor=#8F8F8F;strokeWidth=2;fontColor=#555555;fillColor=none;" vertex="1" parent="70">
                    <mxGeometry x="842" y="45.16" width="177" height="94" as="geometry"/>
                </mxCell>
                <mxCell id="69" value="Secret Engine" style="text;strokeColor=none;align=center;fillColor=none;html=1;verticalAlign=middle;whiteSpace=wrap;rounded=0;strokeWidth=20;fontSize=11;fontColor=#555555;" vertex="1" parent="70">
                    <mxGeometry x="823" y="45.16" width="121.14" height="30" as="geometry"/>
                </mxCell>
            </root>
        </mxGraphModel>
    </diagram>
</mxfile>